<svg width="250" height="250" viewBox="0 0 250 250" fill="none" xmlns="http://www.w3.org/2000/svg">
<path d="M241.598 52.5004H137.027C133.796 49.3251 129.548 47.5834 125 47.5834C120.447 47.5834 116.194 49.329 112.962 52.5111C112.867 52.5038 112.772 52.5004 112.677 52.5004H8.40184C3.76904 52.5004 0 56.2694 0 60.9022V60.976C0 70.7489 7.95067 78.6991 17.7231 78.6991H19.0288C18.9824 79.055 18.9585 79.4183 18.9585 79.7874V79.8612C18.9585 89.6341 26.9091 97.5843 36.6816 97.5843H37.9848C37.9399 97.9344 37.9169 98.2908 37.9169 98.6526V98.7264C37.9169 108.499 45.8676 116.449 55.64 116.449H98.6927C100.715 116.449 102.355 114.81 102.355 112.787C102.355 110.765 100.715 109.125 98.6927 109.125H55.64C49.9057 109.125 45.2411 104.46 45.2411 98.7264V98.6526C45.2411 98.1063 45.6493 97.6541 46.1772 97.5843H51.0585C51.1469 97.5843 51.2343 97.5814 51.3212 97.575H61.4857C63.5082 97.575 65.1478 95.9354 65.1478 93.9129C65.1478 91.8905 63.5082 90.2508 61.4857 90.2508H46.3197C46.1864 90.2508 46.0541 90.2537 45.9228 90.2601H36.6821C30.9482 90.2601 26.2832 85.5951 26.2832 79.8612V79.7874C26.2832 79.1932 26.7666 78.7098 27.3608 78.7098H93.7171C95.7396 78.7098 97.3792 77.0702 97.3792 75.0477C97.3792 73.0253 95.7396 71.3856 93.7171 71.3856H32.3798C32.2875 71.3788 32.1943 71.3754 32.1005 71.3754H17.7231C11.9887 71.3754 7.3242 66.7103 7.3242 60.9764V60.9027C7.3242 60.3085 7.8076 59.8251 8.40184 59.8251H108.524C107.962 61.6923 107.718 63.6654 107.816 65.6815L109.01 90.2513H74.285C72.2626 90.2513 70.6229 91.8909 70.6229 93.9134C70.6229 95.9359 72.2626 97.5755 74.285 97.5755H109.366L112.254 157.026H103.197C93.3372 157.026 85.3158 165.072 85.3158 174.963C85.3158 180.006 87.4505 184.844 91.1722 188.238C92.6668 189.601 94.9827 189.494 96.346 188C97.7088 186.505 97.6019 184.189 96.1077 182.826C93.9041 180.817 92.64 177.95 92.64 174.963C92.64 169.111 97.3758 164.35 103.197 164.35H112.61L113.641 185.576H112.676C102.816 185.576 94.7947 193.622 94.7947 203.513C94.7947 211.101 99.5838 217.898 106.712 220.427C108.617 221.103 110.711 220.107 111.387 218.2C112.064 216.294 111.067 214.2 109.16 213.524C104.949 212.029 102.118 208.006 102.118 203.513C102.118 197.661 106.854 192.9 112.676 192.9H113.996L116.37 241.763C116.596 246.381 120.386 250 125 250C129.614 250 133.404 246.381 133.628 241.762L136.002 192.9H146.802C156.662 192.9 164.684 184.853 164.684 174.963C164.684 173.892 164.589 172.82 164.402 171.776C164.045 169.785 162.143 168.461 160.151 168.818C158.16 169.175 156.836 171.078 157.193 173.069C157.303 173.688 157.36 174.324 157.36 174.963C157.36 180.815 152.624 185.575 146.802 185.575H136.358L137.389 164.349H155.808C165.668 164.349 173.689 156.303 173.689 146.412C173.689 136.522 165.668 128.475 155.808 128.475C153.785 128.475 152.146 130.115 152.146 132.137C152.146 134.16 153.785 135.8 155.808 135.8C161.629 135.8 166.365 140.56 166.365 146.412C166.365 152.264 161.629 157.025 155.808 157.025H137.745L140.634 97.575H178.677C180.7 97.575 182.339 95.9354 182.339 93.9129C182.339 91.8905 180.7 90.2508 178.677 90.2508H140.989L142.183 65.681C142.281 63.6644 142.037 61.6918 141.475 59.8241H241.597C242.191 59.8241 242.675 60.3075 242.675 60.9017V60.9755C242.675 66.7098 238.01 71.3744 232.275 71.3744H221.69C221.596 71.3744 221.503 71.3778 221.411 71.3846H155.334C153.311 71.3846 151.672 73.0243 151.672 75.0467C151.672 77.0692 153.311 78.7088 155.334 78.7088H222.639C223.233 78.7088 223.716 79.1922 223.716 79.7865V79.8602C223.716 85.5946 219.051 90.2591 213.317 90.2591H204.077C203.945 90.2528 203.813 90.2498 203.68 90.2498H192.66C190.637 90.2498 188.998 91.8895 188.998 93.9119C188.998 95.9344 190.637 97.574 192.66 97.574H192.99C193.077 97.5804 193.164 97.5833 193.253 97.5833H203.822C204.349 97.6531 204.758 98.1053 204.758 98.6517V98.7254C204.758 104.459 200.093 109.124 194.359 109.124H150.595C148.572 109.124 146.933 110.764 146.933 112.786C146.933 114.809 148.572 116.449 150.595 116.449H194.359C204.131 116.449 212.082 108.498 212.082 98.7254V98.6517C212.082 98.2899 212.059 97.9334 212.014 97.5833H213.317C223.09 97.5833 231.041 89.6326 231.041 79.8602V79.7865C231.041 79.4178 231.017 79.0545 230.971 78.6981H232.276C242.049 78.6981 250 70.7474 250 60.975V60.9013C250 56.2694 246.23 52.5004 241.598 52.5004ZM126.312 241.408C126.278 242.119 125.701 242.675 125 242.675C124.298 242.675 123.721 242.118 123.687 241.407L121.33 192.9H128.67L126.312 241.408ZM129.025 185.575H120.974L119.943 164.349H130.056L129.025 185.575ZM130.413 157.026H119.587L115.131 65.326C114.997 62.5736 115.968 59.9613 117.864 57.9711C119.745 55.996 122.28 54.9086 125 54.9086C127.72 54.9086 130.255 55.9965 132.135 57.9711C134.031 59.9618 135.002 62.5736 134.868 65.326L130.413 157.026Z" fill="#F3F3F3"/>
<path d="M125 41.4257C136.384 41.4257 145.646 32.1342 145.646 20.7129C145.646 9.29149 136.384 0 125 0C113.615 0 104.353 9.29149 104.353 20.7129C104.353 32.1342 113.615 41.4257 125 41.4257ZM125 7.3242C132.345 7.3242 138.322 13.3301 138.322 20.7129C138.322 28.0956 132.345 34.1015 125 34.1015C117.654 34.1015 111.678 28.0956 111.678 20.7129C111.678 13.3301 117.654 7.3242 125 7.3242Z" fill="#F3F3F3"/>
<path d="M149.827 195.782C147.895 196.379 146.812 198.429 147.409 200.361C147.722 201.376 147.881 202.437 147.881 203.513C147.881 208.007 145.051 212.03 140.839 213.525C138.932 214.201 137.936 216.295 138.612 218.2C139.144 219.702 140.556 220.639 142.063 220.639C142.469 220.639 142.883 220.57 143.288 220.427C150.416 217.898 155.205 211.101 155.205 203.513C155.205 201.703 154.936 199.916 154.406 198.2C153.81 196.268 151.759 195.184 149.827 195.782Z" fill="#F3F3F3"/>
<path d="M86.8055 153.996C84.7601 151.983 83.6336 149.29 83.6336 146.412C83.6336 140.56 88.3695 135.8 94.1907 135.8C96.2132 135.8 97.8528 134.16 97.8528 132.137C97.8528 130.115 96.2132 128.475 94.1907 128.475C84.3309 128.475 76.3094 136.522 76.3094 146.412C76.3094 151.268 78.2122 155.815 81.6678 159.216C82.3812 159.918 83.3094 160.268 84.2367 160.268C85.1834 160.268 86.1302 159.903 86.847 159.175C88.2659 157.734 88.2474 155.415 86.8055 153.996Z" fill="#F3F3F3"/>
</svg>
