<svg width="37" height="31" viewBox="0 0 37 31" fill="none" xmlns="http://www.w3.org/2000/svg">
<path d="M35.4583 13.9502H4.70285L16.4796 2.67255C17.0963 2.082 17.1202 1.10086 16.5328 0.480872C15.9462 -0.138345 14.9704 -0.163145 14.3529 0.427398L0.903417 13.3077C0.321437 13.8936 0 14.6717 0 15.5002C0 16.3279 0.321437 17.1067 0.930396 17.7182L14.3537 30.5722C14.652 30.8582 15.0343 31 15.4167 31C15.8237 31 16.2307 30.8388 16.5336 30.5187C17.121 29.8987 17.0971 28.9184 16.4804 28.3278L4.65429 17.0502H35.4583C36.3093 17.0502 37 16.3558 37 15.5002C37 14.6446 36.3093 13.9502 35.4583 13.9502Z" fill="#F3F3F3"/>
</svg>
