<svg width="30" height="49" viewBox="0 0 30 49" fill="none" xmlns="http://www.w3.org/2000/svg">
<path d="M1.37271 20.8704C1.61968 20.6243 1.8876 20.4165 2.16949 20.2359L21.0269 1.37931C22.8666 -0.45948 25.8513 -0.460353 27.6918 1.38019C29.5324 3.21985 29.5324 6.20364 27.6918 8.04505L11.4516 24.2853L27.7756 40.6101C29.6161 42.4498 29.6161 45.4327 27.7756 47.275C26.8549 48.1966 25.6479 48.6556 24.4436 48.6556C23.2393 48.6556 22.0314 48.1966 21.1116 47.275L2.16949 28.3311C1.8876 28.1505 1.61794 27.9428 1.37271 27.6967C0.431927 26.7559 -0.0218802 25.5167 0.00081023 24.2835C-0.0218802 23.0504 0.431927 21.812 1.37271 20.8704Z" fill="#5B84B1"/>
</svg>
